<svg width="514" height="439" fill="none" xmlns="http://www.w3.org/2000/svg"><path d="M107.996 55.816c16.916 1.138 23.999-10.413 31.937-25.258 21.758-40.635 70.222-36.724 86.478-11.703 11.512 17.728 36.345 14.076 56.424 7.14 19.764-6.826 53.445-13.382 80.282-5.222 23.436 7.13 33.042 32.833 54.41 31.25 46.601-3.445 70.091 42.576 61.644 62.655-5.513 13.101-8.242 27.762-3.769 41.242 4.927 14.845 16.201 26.602 25.309 39.367 9.108 12.765 16.44 28.726 11.913 43.702-3.877 12.819-15.432 21.683-22.602 33.006-22.277 35.185-.238 89.116-29.923 118.449-21.248 20.989-55.882 16.146-85.611 20.155-24.789 3.337-48.117 13.762-72.799 17.836-49.98 8.268-100.447-9.937-151.11-10.457-17.848-.184-36.031 1.81-53.316-2.59-23.067-5.873-42.691-23.633-50.695-45.858-11.046-30.666-.584-66.164-13.05-96.289C23.36 248.698-1.495 228.727.076 202.244c.974-16.493 12.226-30.276 19.97-44.905 11.501-21.726-3.736-107.656 87.95-101.523zm147.482-39.811c-4.451 0-8.047 2.763-8.047 6.166 0 3.402 3.618 5.873 8.047 6.165 14.458.954 14.458-4.887 14.458-8.3 0-5.44-10.018-4.031-14.458-4.031zM402.3 42.315c3.866 3.196 8.794 5.104 13.819 5.364 1.343.065 2.805-.022 3.833-.867 1.278-1.051 1.419-3.208.282-4.41-.715-.759-1.754-1.095-2.729-1.496-1.657-.672-3.271-1.636-4.213-3.142-.271-.434-.509-.943-.953-1.192C409.556 35 397.21 38.11 402.3 42.315zm24.627 5.45c1.278.445 2.664.033 3.953-.379.823-.27 1.83-.856 1.614-1.68-.109-.4-.477-.66-.845-.856-1.69-.899-3.877-1.57-5.567-.411-1.7 1.148-.422 2.893.845 3.326zm58.796 116.238c.216 1.918 1.408 3.576 2.545 5.137 2.209 3.012 4.451 6.068 7.364 8.419 1.235.997 2.664 1.886 4.256 1.94 1.451.054 2.838-.607 4.007-1.452 2.859-2.048 4.787-5.331 5.188-8.81.541-4.768-1.679-9.416-4.256-13.48-1.603-2.514-3.466-5.028-6.13-6.371-4.484-2.265-7.44-.293-8.696 3.684-1.138 3.662-4.744 6.859-4.278 10.933zM8.793 275.073c-2.36 2.08-.227 8.17.466 12.19.206 1.203.488 2.449 1.246 3.414 1.04 1.311 2.772 1.853 4.386 2.329 2.87.835 6.357 1.539 8.556-.476 1.624-1.496 1.862-3.945 1.851-6.145 0-2.015-.108-4.02-.324-6.024-.098-.965-.239-1.951-.759-2.774-.66-1.051-1.83-1.658-2.967-2.146-4.105-1.734-10.094-2.438-12.454-.368zM153.07 427.611c-1.397.282-3.065.889-3.271 2.287-.162 1.159.802 2.145 1.744 2.839 7.7 5.754 18.075 6.122 27.714 6.252 1.126.011 2.296.022 3.325-.411 2.057-.867 3.054-3.587 2.09-5.592-.347-.737-.899-1.354-1.484-1.918-7.732-7.553-20.468-5.385-30.118-3.457zm192.405-3.89c-8.696 6.361.097 12.05 11.079 7.835 5.913-2.276 11.588-4.519 17.653-6.036 1.96-.488 13.797-3.056 13.797-5.71 0-7.055-13.332-5.386-21.725-4.216-6.768.943-13.635 2.883-20.804 8.127z" fill="#ECF3FF"/></svg>